<mxfile host="Electron" agent="Mozilla/5.0 (Macintosh; Intel Mac OS X 10_15_7) AppleWebKit/537.36 (KHTML, like Gecko) draw.io/28.0.6 Chrome/138.0.7204.100 Electron/37.2.3 Safari/537.36" version="28.0.6">
  <diagram id="knsnF6ObBRKme7ACtTA0" name="Страница 1">
    <mxGraphModel dx="2479" dy="1792" grid="1" gridSize="10" guides="1" tooltips="1" connect="1" arrows="1" fold="1" page="1" pageScale="1" pageWidth="1169" pageHeight="827" math="0" shadow="0">
      <root>
        <mxCell id="0" />
        <mxCell id="1" parent="0" />
        <mxCell id="5rGbsbJMOas40W4paa9o-69" value="" style="rounded=0;whiteSpace=wrap;html=1;" vertex="1" parent="1">
          <mxGeometry x="1190" y="-500" width="250" height="980" as="geometry" />
        </mxCell>
        <mxCell id="5rGbsbJMOas40W4paa9o-66" value="" style="rounded=0;whiteSpace=wrap;html=1;" vertex="1" parent="1">
          <mxGeometry x="-520" y="-320" width="260" height="420" as="geometry" />
        </mxCell>
        <mxCell id="5rGbsbJMOas40W4paa9o-63" value="" style="rounded=0;whiteSpace=wrap;html=1;" vertex="1" parent="1">
          <mxGeometry x="-50" y="-600" width="1220" height="1090" as="geometry" />
        </mxCell>
        <mxCell id="uNtTc-Wmph4pzVrM2ROG-3" value="Тренировка" style="rounded=0;whiteSpace=wrap;html=1;fillColor=#d5e8d4;strokeColor=#82b366;" parent="1" vertex="1">
          <mxGeometry x="500" y="-240" width="220" height="70" as="geometry" />
        </mxCell>
        <mxCell id="uNtTc-Wmph4pzVrM2ROG-4" value="Группа" style="rounded=0;whiteSpace=wrap;html=1;fillColor=#d5e8d4;strokeColor=#82b366;" parent="1" vertex="1">
          <mxGeometry x="310" y="10" width="150" height="60" as="geometry" />
        </mxCell>
        <mxCell id="Q4NwFkbrb7sqt-uBTXur-2" value="Товар" style="rounded=0;whiteSpace=wrap;html=1;fillColor=#d5e8d4;strokeColor=#82b366;" parent="1" vertex="1">
          <mxGeometry x="505" y="210" width="210" height="70" as="geometry" />
        </mxCell>
        <mxCell id="Q4NwFkbrb7sqt-uBTXur-11" value="ERP" style="rounded=0;whiteSpace=wrap;html=1;fillColor=#f5f5f5;strokeColor=#666666;gradientColor=#b3b3b3;" parent="1" vertex="1">
          <mxGeometry x="1215" y="140" width="210" height="82" as="geometry" />
        </mxCell>
        <mxCell id="Q4NwFkbrb7sqt-uBTXur-12" value="" style="endArrow=none;html=1;rounded=0;" parent="1" source="Q4NwFkbrb7sqt-uBTXur-2" target="Q4NwFkbrb7sqt-uBTXur-11" edge="1">
          <mxGeometry width="50" height="50" relative="1" as="geometry">
            <mxPoint x="450" y="290" as="sourcePoint" />
            <mxPoint x="500" y="240" as="targetPoint" />
          </mxGeometry>
        </mxCell>
        <mxCell id="DbaH6nA7okpj-h0mhGXv-4" value="Товар синхронизируется с ERP" style="edgeLabel;html=1;align=center;verticalAlign=middle;resizable=0;points=[];" parent="Q4NwFkbrb7sqt-uBTXur-12" vertex="1" connectable="0">
          <mxGeometry x="0.1778" y="1" relative="1" as="geometry">
            <mxPoint y="1" as="offset" />
          </mxGeometry>
        </mxCell>
        <mxCell id="Q4NwFkbrb7sqt-uBTXur-13" value="" style="endArrow=none;html=1;rounded=0;entryX=0;entryY=0.5;entryDx=0;entryDy=0;exitX=1;exitY=0.5;exitDx=0;exitDy=0;" parent="1" source="a4ZsJ5WFxNML0yxiNX1Z-1" target="uNtTc-Wmph4pzVrM2ROG-3" edge="1">
          <mxGeometry width="50" height="50" relative="1" as="geometry">
            <mxPoint x="180" y="120" as="sourcePoint" />
            <mxPoint x="500" y="180" as="targetPoint" />
          </mxGeometry>
        </mxCell>
        <mxCell id="DbaH6nA7okpj-h0mhGXv-1" value="Пользователь формирует&lt;div&gt;&amp;nbsp;тренировку, система подсказывает&amp;nbsp;&lt;/div&gt;&lt;div&gt;состав тренировки&lt;/div&gt;&lt;div&gt;и рекомендует ему товары&amp;nbsp;&lt;/div&gt;&lt;div&gt;п&lt;span style=&quot;background-color: light-dark(#ffffff, var(--ge-dark-color, #121212)); color: light-dark(rgb(0, 0, 0), rgb(255, 255, 255));&quot;&gt;од тренировку&lt;/span&gt;&lt;/div&gt;" style="edgeLabel;html=1;align=center;verticalAlign=middle;resizable=0;points=[];" parent="Q4NwFkbrb7sqt-uBTXur-13" vertex="1" connectable="0">
          <mxGeometry x="0.1167" y="-2" relative="1" as="geometry">
            <mxPoint x="-48" y="-20" as="offset" />
          </mxGeometry>
        </mxCell>
        <mxCell id="Q4NwFkbrb7sqt-uBTXur-14" value="" style="endArrow=none;html=1;rounded=0;entryX=0.5;entryY=1;entryDx=0;entryDy=0;" parent="1" source="5rGbsbJMOas40W4paa9o-77" target="uNtTc-Wmph4pzVrM2ROG-3" edge="1">
          <mxGeometry width="50" height="50" relative="1" as="geometry">
            <mxPoint x="410" y="290" as="sourcePoint" />
            <mxPoint x="460" y="240" as="targetPoint" />
          </mxGeometry>
        </mxCell>
        <mxCell id="DbaH6nA7okpj-h0mhGXv-3" value="Система рекомендует пользователю товар&amp;nbsp;&lt;div&gt;для тренировки&lt;/div&gt;" style="edgeLabel;html=1;align=center;verticalAlign=middle;resizable=0;points=[];" parent="Q4NwFkbrb7sqt-uBTXur-14" vertex="1" connectable="0">
          <mxGeometry x="-0.1083" y="-1" relative="1" as="geometry">
            <mxPoint y="1" as="offset" />
          </mxGeometry>
        </mxCell>
        <mxCell id="Q4NwFkbrb7sqt-uBTXur-15" value="" style="endArrow=none;html=1;rounded=0;" parent="1" source="uNtTc-Wmph4pzVrM2ROG-4" target="uNtTc-Wmph4pzVrM2ROG-3" edge="1">
          <mxGeometry width="50" height="50" relative="1" as="geometry">
            <mxPoint x="450" y="230" as="sourcePoint" />
            <mxPoint x="470" y="120" as="targetPoint" />
          </mxGeometry>
        </mxCell>
        <mxCell id="DbaH6nA7okpj-h0mhGXv-2" value="Группа может быть привязана к тренировке&amp;nbsp;&lt;div&gt;для совместных тренировок или обсуждений&lt;/div&gt;" style="edgeLabel;html=1;align=center;verticalAlign=middle;resizable=0;points=[];" parent="Q4NwFkbrb7sqt-uBTXur-15" vertex="1" connectable="0">
          <mxGeometry x="0.5333" y="-1" relative="1" as="geometry">
            <mxPoint x="-90" y="24" as="offset" />
          </mxGeometry>
        </mxCell>
        <mxCell id="a4ZsJ5WFxNML0yxiNX1Z-1" value="Пользователь1" style="rounded=0;whiteSpace=wrap;html=1;fillColor=#FFFFFF;" parent="1" vertex="1">
          <mxGeometry x="-490" y="-240" width="180" height="60" as="geometry" />
        </mxCell>
        <mxCell id="5rGbsbJMOas40W4paa9o-1" value="ПользовательN" style="rounded=0;whiteSpace=wrap;html=1;" vertex="1" parent="1">
          <mxGeometry x="-490" y="10" width="180" height="60" as="geometry" />
        </mxCell>
        <mxCell id="5rGbsbJMOas40W4paa9o-2" value="" style="endArrow=none;html=1;rounded=0;" edge="1" parent="1" source="uNtTc-Wmph4pzVrM2ROG-4" target="5rGbsbJMOas40W4paa9o-1">
          <mxGeometry width="50" height="50" relative="1" as="geometry">
            <mxPoint x="800" y="230" as="sourcePoint" />
            <mxPoint x="850" y="180" as="targetPoint" />
          </mxGeometry>
        </mxCell>
        <mxCell id="5rGbsbJMOas40W4paa9o-8" value="Пользователь может вступить&amp;nbsp;&lt;div&gt;в группу интересов&lt;/div&gt;" style="edgeLabel;html=1;align=center;verticalAlign=middle;resizable=0;points=[];" vertex="1" connectable="0" parent="5rGbsbJMOas40W4paa9o-2">
          <mxGeometry x="-0.0686" y="1" relative="1" as="geometry">
            <mxPoint as="offset" />
          </mxGeometry>
        </mxCell>
        <mxCell id="5rGbsbJMOas40W4paa9o-3" value="Место тренировки" style="rounded=0;whiteSpace=wrap;html=1;fillColor=#fff2cc;strokeColor=#d6b656;" vertex="1" parent="1">
          <mxGeometry x="1010" y="-560" width="140" height="60" as="geometry" />
        </mxCell>
        <mxCell id="5rGbsbJMOas40W4paa9o-4" value="" style="endArrow=none;html=1;rounded=0;" edge="1" parent="1" source="uNtTc-Wmph4pzVrM2ROG-3" target="5rGbsbJMOas40W4paa9o-3">
          <mxGeometry width="50" height="50" relative="1" as="geometry">
            <mxPoint x="510" y="240" as="sourcePoint" />
            <mxPoint x="560" y="190" as="targetPoint" />
            <Array as="points">
              <mxPoint x="1050" y="-320" />
            </Array>
          </mxGeometry>
        </mxCell>
        <mxCell id="5rGbsbJMOas40W4paa9o-5" value="Тренировка может быть привязано&amp;nbsp;&lt;div&gt;к месту, локации.&lt;/div&gt;" style="edgeLabel;html=1;align=center;verticalAlign=middle;resizable=0;points=[];" vertex="1" connectable="0" parent="5rGbsbJMOas40W4paa9o-4">
          <mxGeometry x="0.2135" y="-1" relative="1" as="geometry">
            <mxPoint x="29" y="4" as="offset" />
          </mxGeometry>
        </mxCell>
        <mxCell id="5rGbsbJMOas40W4paa9o-6" value="" style="endArrow=none;html=1;rounded=0;" edge="1" parent="1" source="uNtTc-Wmph4pzVrM2ROG-4" target="a4ZsJ5WFxNML0yxiNX1Z-1">
          <mxGeometry width="50" height="50" relative="1" as="geometry">
            <mxPoint x="330" y="240" as="sourcePoint" />
            <mxPoint x="380" y="190" as="targetPoint" />
          </mxGeometry>
        </mxCell>
        <mxCell id="5rGbsbJMOas40W4paa9o-7" value="Пользователь создает группу под тренировку&amp;nbsp;&lt;div&gt;и может пригласить других пользователей, общаться, советовать&lt;/div&gt;" style="edgeLabel;html=1;align=center;verticalAlign=middle;resizable=0;points=[];" vertex="1" connectable="0" parent="5rGbsbJMOas40W4paa9o-6">
          <mxGeometry x="-0.0944" y="2" relative="1" as="geometry">
            <mxPoint as="offset" />
          </mxGeometry>
        </mxCell>
        <mxCell id="5rGbsbJMOas40W4paa9o-9" value="История тренировок" style="rounded=0;whiteSpace=wrap;html=1;fillColor=#dae8fc;strokeColor=#6c8ebf;" vertex="1" parent="1">
          <mxGeometry x="1000" y="-235" width="140" height="60" as="geometry" />
        </mxCell>
        <mxCell id="5rGbsbJMOas40W4paa9o-10" value="" style="endArrow=none;html=1;rounded=0;" edge="1" parent="1" source="uNtTc-Wmph4pzVrM2ROG-3" target="5rGbsbJMOas40W4paa9o-9">
          <mxGeometry width="50" height="50" relative="1" as="geometry">
            <mxPoint x="720" y="200" as="sourcePoint" />
            <mxPoint x="770" y="150" as="targetPoint" />
          </mxGeometry>
        </mxCell>
        <mxCell id="5rGbsbJMOas40W4paa9o-11" value="Пользователь ведет сравнение&amp;nbsp;&lt;div&gt;с прошлыми тренировками&lt;/div&gt;" style="edgeLabel;html=1;align=center;verticalAlign=middle;resizable=0;points=[];" vertex="1" connectable="0" parent="5rGbsbJMOas40W4paa9o-10">
          <mxGeometry x="-0.2241" relative="1" as="geometry">
            <mxPoint as="offset" />
          </mxGeometry>
        </mxCell>
        <mxCell id="5rGbsbJMOas40W4paa9o-12" value="" style="endArrow=none;html=1;rounded=0;" edge="1" parent="1" source="uNtTc-Wmph4pzVrM2ROG-4" target="Q4NwFkbrb7sqt-uBTXur-2">
          <mxGeometry width="50" height="50" relative="1" as="geometry">
            <mxPoint x="250" y="200" as="sourcePoint" />
            <mxPoint x="300" y="150" as="targetPoint" />
          </mxGeometry>
        </mxCell>
        <mxCell id="5rGbsbJMOas40W4paa9o-13" value="" style="endArrow=none;html=1;rounded=0;" edge="1" parent="1" source="5rGbsbJMOas40W4paa9o-1" target="a4ZsJ5WFxNML0yxiNX1Z-1">
          <mxGeometry width="50" height="50" relative="1" as="geometry">
            <mxPoint x="260" y="200" as="sourcePoint" />
            <mxPoint x="310" y="150" as="targetPoint" />
          </mxGeometry>
        </mxCell>
        <mxCell id="5rGbsbJMOas40W4paa9o-14" value="Пользователь ищет других пользователей&lt;div&gt;с схожими интересами&amp;nbsp;&lt;/div&gt;" style="edgeLabel;html=1;align=center;verticalAlign=middle;resizable=0;points=[];" vertex="1" connectable="0" parent="5rGbsbJMOas40W4paa9o-13">
          <mxGeometry x="-0.0464" y="-3" relative="1" as="geometry">
            <mxPoint as="offset" />
          </mxGeometry>
        </mxCell>
        <mxCell id="5rGbsbJMOas40W4paa9o-15" value="Социальная часть профиля пользователя" style="rounded=0;whiteSpace=wrap;html=1;fillColor=#dae8fc;strokeColor=#6c8ebf;" vertex="1" parent="1">
          <mxGeometry x="-20" y="-380" width="180" height="60" as="geometry" />
        </mxCell>
        <mxCell id="5rGbsbJMOas40W4paa9o-16" value="" style="endArrow=none;html=1;rounded=0;" edge="1" parent="1" source="5rGbsbJMOas40W4paa9o-15" target="a4ZsJ5WFxNML0yxiNX1Z-1">
          <mxGeometry width="50" height="50" relative="1" as="geometry">
            <mxPoint x="-50" y="50" as="sourcePoint" />
            <mxPoint as="targetPoint" />
            <Array as="points">
              <mxPoint x="-400" y="-430" />
            </Array>
          </mxGeometry>
        </mxCell>
        <mxCell id="5rGbsbJMOas40W4paa9o-17" value="Пользователь записывает в профиль&amp;nbsp;&lt;div&gt;с&lt;span style=&quot;background-color: light-dark(#ffffff, var(--ge-dark-color, #121212)); color: light-dark(rgb(0, 0, 0), rgb(255, 255, 255));&quot;&gt;вои физические характеристики&lt;/span&gt;&lt;/div&gt;" style="edgeLabel;html=1;align=center;verticalAlign=middle;resizable=0;points=[];" vertex="1" connectable="0" parent="5rGbsbJMOas40W4paa9o-16">
          <mxGeometry x="0.0814" y="-1" relative="1" as="geometry">
            <mxPoint x="-28" y="16" as="offset" />
          </mxGeometry>
        </mxCell>
        <mxCell id="5rGbsbJMOas40W4paa9o-19" value="" style="endArrow=none;html=1;rounded=0;" edge="1" parent="1" source="uNtTc-Wmph4pzVrM2ROG-3" target="5rGbsbJMOas40W4paa9o-15">
          <mxGeometry width="50" height="50" relative="1" as="geometry">
            <mxPoint x="310" y="-290" as="sourcePoint" />
            <mxPoint x="10" y="-130" as="targetPoint" />
          </mxGeometry>
        </mxCell>
        <mxCell id="5rGbsbJMOas40W4paa9o-20" value="По физическим характеристикам система&amp;nbsp;&lt;div&gt;предлагает режимы тренировок и продукты&amp;nbsp;&lt;/div&gt;" style="edgeLabel;html=1;align=center;verticalAlign=middle;resizable=0;points=[];" vertex="1" connectable="0" parent="5rGbsbJMOas40W4paa9o-19">
          <mxGeometry x="-0.1098" relative="1" as="geometry">
            <mxPoint as="offset" />
          </mxGeometry>
        </mxCell>
        <mxCell id="5rGbsbJMOas40W4paa9o-22" value="" style="endArrow=none;html=1;rounded=0;" edge="1" parent="1" source="5rGbsbJMOas40W4paa9o-21" target="5rGbsbJMOas40W4paa9o-15">
          <mxGeometry width="50" height="50" relative="1" as="geometry">
            <mxPoint x="320" y="-150" as="sourcePoint" />
            <mxPoint x="370" y="-200" as="targetPoint" />
          </mxGeometry>
        </mxCell>
        <mxCell id="5rGbsbJMOas40W4paa9o-23" value="У пользователя&amp;nbsp;&lt;div&gt;инвентарь&amp;nbsp;&lt;span style=&quot;background-color: light-dark(#ffffff, var(--ge-dark-color, #121212)); color: light-dark(rgb(0, 0, 0), rgb(255, 255, 255));&quot;&gt;привязан&amp;nbsp;&lt;/span&gt;&lt;/div&gt;&lt;div&gt;&lt;span style=&quot;background-color: light-dark(#ffffff, var(--ge-dark-color, #121212)); color: light-dark(rgb(0, 0, 0), rgb(255, 255, 255));&quot;&gt;к тренировке&lt;/span&gt;&lt;/div&gt;" style="edgeLabel;html=1;align=center;verticalAlign=middle;resizable=0;points=[];" vertex="1" connectable="0" parent="5rGbsbJMOas40W4paa9o-22">
          <mxGeometry x="-0.1881" relative="1" as="geometry">
            <mxPoint as="offset" />
          </mxGeometry>
        </mxCell>
        <mxCell id="5rGbsbJMOas40W4paa9o-25" value="" style="endArrow=none;html=1;rounded=0;" edge="1" parent="1" source="uNtTc-Wmph4pzVrM2ROG-3" target="5rGbsbJMOas40W4paa9o-99">
          <mxGeometry width="50" height="50" relative="1" as="geometry">
            <mxPoint x="320" y="-150" as="sourcePoint" />
            <mxPoint x="370" y="-200" as="targetPoint" />
          </mxGeometry>
        </mxCell>
        <mxCell id="5rGbsbJMOas40W4paa9o-27" value="Система рекомендует&amp;nbsp;&lt;div&gt;заменить старый инвентарь&amp;nbsp;&lt;/div&gt;&lt;div&gt;на новый товар&lt;/div&gt;" style="edgeLabel;html=1;align=center;verticalAlign=middle;resizable=0;points=[];" vertex="1" connectable="0" parent="5rGbsbJMOas40W4paa9o-25">
          <mxGeometry x="0.2125" relative="1" as="geometry">
            <mxPoint x="1" as="offset" />
          </mxGeometry>
        </mxCell>
        <mxCell id="5rGbsbJMOas40W4paa9o-28" value="Система заказов" style="rounded=0;whiteSpace=wrap;html=1;fillColor=#f5f5f5;strokeColor=#666666;gradientColor=#b3b3b3;" vertex="1" parent="1">
          <mxGeometry x="1220" y="-40" width="210" height="90" as="geometry" />
        </mxCell>
        <mxCell id="5rGbsbJMOas40W4paa9o-29" value="" style="endArrow=none;html=1;rounded=0;" edge="1" parent="1" source="5rGbsbJMOas40W4paa9o-28" target="Q4NwFkbrb7sqt-uBTXur-2">
          <mxGeometry width="50" height="50" relative="1" as="geometry">
            <mxPoint x="680" y="80" as="sourcePoint" />
            <mxPoint x="730" y="30" as="targetPoint" />
            <Array as="points" />
          </mxGeometry>
        </mxCell>
        <mxCell id="5rGbsbJMOas40W4paa9o-30" value="Пользователь оформляет заказ&amp;nbsp;&lt;div&gt;под тренировку или&amp;nbsp;&lt;/div&gt;&lt;div&gt;по рекомендации&lt;/div&gt;" style="edgeLabel;html=1;align=center;verticalAlign=middle;resizable=0;points=[];" vertex="1" connectable="0" parent="5rGbsbJMOas40W4paa9o-29">
          <mxGeometry x="0.0614" relative="1" as="geometry">
            <mxPoint y="-1" as="offset" />
          </mxGeometry>
        </mxCell>
        <mxCell id="5rGbsbJMOas40W4paa9o-33" value="Управление уведомлениями" style="rounded=0;whiteSpace=wrap;html=1;fillColor=#dae8fc;strokeColor=#6c8ebf;" vertex="1" parent="1">
          <mxGeometry x="10" y="348" width="180" height="66" as="geometry" />
        </mxCell>
        <mxCell id="5rGbsbJMOas40W4paa9o-34" value="" style="endArrow=none;html=1;rounded=0;" edge="1" parent="1" source="5rGbsbJMOas40W4paa9o-33" target="a4ZsJ5WFxNML0yxiNX1Z-1">
          <mxGeometry width="50" height="50" relative="1" as="geometry">
            <mxPoint x="80" y="80" as="sourcePoint" />
            <mxPoint x="130" y="30" as="targetPoint" />
            <Array as="points">
              <mxPoint x="-540" y="380" />
              <mxPoint x="-540" y="-205" />
            </Array>
          </mxGeometry>
        </mxCell>
        <mxCell id="5rGbsbJMOas40W4paa9o-40" value="Система уведомляет&amp;nbsp;&lt;div&gt;пользователей о событиях&lt;/div&gt;" style="edgeLabel;html=1;align=center;verticalAlign=middle;resizable=0;points=[];" vertex="1" connectable="0" parent="5rGbsbJMOas40W4paa9o-34">
          <mxGeometry x="-0.3833" y="-1" relative="1" as="geometry">
            <mxPoint x="1" as="offset" />
          </mxGeometry>
        </mxCell>
        <mxCell id="5rGbsbJMOas40W4paa9o-35" value="" style="endArrow=none;html=1;rounded=0;exitX=0.25;exitY=1;exitDx=0;exitDy=0;" edge="1" parent="1" source="uNtTc-Wmph4pzVrM2ROG-4" target="5rGbsbJMOas40W4paa9o-33">
          <mxGeometry width="50" height="50" relative="1" as="geometry">
            <mxPoint x="80" y="80" as="sourcePoint" />
            <mxPoint x="130" y="30" as="targetPoint" />
            <Array as="points" />
          </mxGeometry>
        </mxCell>
        <mxCell id="5rGbsbJMOas40W4paa9o-38" value="Система уведомляет&amp;nbsp;&lt;div&gt;пользователей о событиях&lt;/div&gt;" style="edgeLabel;html=1;align=center;verticalAlign=middle;resizable=0;points=[];" vertex="1" connectable="0" parent="5rGbsbJMOas40W4paa9o-35">
          <mxGeometry x="0.72" y="3" relative="1" as="geometry">
            <mxPoint x="91" y="2" as="offset" />
          </mxGeometry>
        </mxCell>
        <mxCell id="5rGbsbJMOas40W4paa9o-37" value="" style="endArrow=none;html=1;rounded=0;" edge="1" parent="1" source="5rGbsbJMOas40W4paa9o-1" target="5rGbsbJMOas40W4paa9o-33">
          <mxGeometry width="50" height="50" relative="1" as="geometry">
            <mxPoint x="80" y="80" as="sourcePoint" />
            <mxPoint x="130" y="30" as="targetPoint" />
          </mxGeometry>
        </mxCell>
        <mxCell id="5rGbsbJMOas40W4paa9o-39" value="Система уведомляет&amp;nbsp;&lt;div&gt;пользователей о событиях&lt;/div&gt;" style="edgeLabel;html=1;align=center;verticalAlign=middle;resizable=0;points=[];" vertex="1" connectable="0" parent="5rGbsbJMOas40W4paa9o-37">
          <mxGeometry x="-0.1406" y="-1" relative="1" as="geometry">
            <mxPoint as="offset" />
          </mxGeometry>
        </mxCell>
        <mxCell id="5rGbsbJMOas40W4paa9o-41" value="Сторонние устройства" style="rounded=0;whiteSpace=wrap;html=1;fillColor=#f5f5f5;strokeColor=#666666;gradientColor=#b3b3b3;" vertex="1" parent="1">
          <mxGeometry x="490" y="-730" width="230" height="60" as="geometry" />
        </mxCell>
        <mxCell id="5rGbsbJMOas40W4paa9o-42" value="" style="endArrow=none;html=1;rounded=0;" edge="1" parent="1" source="5rGbsbJMOas40W4paa9o-94" target="5rGbsbJMOas40W4paa9o-41">
          <mxGeometry width="50" height="50" relative="1" as="geometry">
            <mxPoint x="950" y="-10" as="sourcePoint" />
            <mxPoint x="1000" y="-60" as="targetPoint" />
          </mxGeometry>
        </mxCell>
        <mxCell id="5rGbsbJMOas40W4paa9o-64" value="Данные со сторонних устройств собираются&amp;nbsp;&lt;div&gt;в рамках тренировки&lt;/div&gt;" style="edgeLabel;html=1;align=center;verticalAlign=middle;resizable=0;points=[];" vertex="1" connectable="0" parent="5rGbsbJMOas40W4paa9o-42">
          <mxGeometry x="0.2" y="-7" relative="1" as="geometry">
            <mxPoint x="-8" y="4" as="offset" />
          </mxGeometry>
        </mxCell>
        <mxCell id="5rGbsbJMOas40W4paa9o-21" value="Инвентарь пользователя" style="rounded=0;whiteSpace=wrap;html=1;fillColor=#dae8fc;strokeColor=#6c8ebf;" vertex="1" parent="1">
          <mxGeometry x="190" y="-495" width="160" height="60" as="geometry" />
        </mxCell>
        <mxCell id="5rGbsbJMOas40W4paa9o-44" value="" style="endArrow=none;html=1;rounded=0;exitX=0.5;exitY=0;exitDx=0;exitDy=0;" edge="1" parent="1" source="5rGbsbJMOas40W4paa9o-97" target="5rGbsbJMOas40W4paa9o-41">
          <mxGeometry width="50" height="50" relative="1" as="geometry">
            <mxPoint x="400" y="-380" as="sourcePoint" />
            <mxPoint x="450" y="-430" as="targetPoint" />
            <Array as="points">
              <mxPoint x="80" y="-700" />
            </Array>
          </mxGeometry>
        </mxCell>
        <mxCell id="5rGbsbJMOas40W4paa9o-45" value="Пользователь может подключать&amp;nbsp;&lt;div&gt;сторонние устройства&amp;nbsp;&lt;/div&gt;&lt;div&gt;для отслеживания тренировок&lt;/div&gt;" style="edgeLabel;html=1;align=center;verticalAlign=middle;resizable=0;points=[];" vertex="1" connectable="0" parent="5rGbsbJMOas40W4paa9o-44">
          <mxGeometry x="0.6911" relative="1" as="geometry">
            <mxPoint x="-220" y="10" as="offset" />
          </mxGeometry>
        </mxCell>
        <mxCell id="5rGbsbJMOas40W4paa9o-46" value="Промоакции" style="rounded=0;whiteSpace=wrap;html=1;fillColor=#fff2cc;strokeColor=#d6b656;" vertex="1" parent="1">
          <mxGeometry x="1000" y="-40" width="160" height="70" as="geometry" />
        </mxCell>
        <mxCell id="5rGbsbJMOas40W4paa9o-47" value="Управление новостями спорта" style="rounded=0;whiteSpace=wrap;html=1;fillColor=#ffe6cc;strokeColor=#d79b00;" vertex="1" parent="1">
          <mxGeometry x="290" y="340" width="200" height="74" as="geometry" />
        </mxCell>
        <mxCell id="5rGbsbJMOas40W4paa9o-48" value="" style="endArrow=none;html=1;rounded=0;" edge="1" parent="1" source="uNtTc-Wmph4pzVrM2ROG-3" target="5rGbsbJMOas40W4paa9o-46">
          <mxGeometry width="50" height="50" relative="1" as="geometry">
            <mxPoint x="350" y="150" as="sourcePoint" />
            <mxPoint x="170" y="180" as="targetPoint" />
          </mxGeometry>
        </mxCell>
        <mxCell id="5rGbsbJMOas40W4paa9o-49" value="Промоакции&amp;nbsp;&lt;div&gt;под тренировки&lt;/div&gt;" style="edgeLabel;html=1;align=center;verticalAlign=middle;resizable=0;points=[];" vertex="1" connectable="0" parent="5rGbsbJMOas40W4paa9o-48">
          <mxGeometry x="0.3742" y="2" relative="1" as="geometry">
            <mxPoint as="offset" />
          </mxGeometry>
        </mxCell>
        <mxCell id="5rGbsbJMOas40W4paa9o-50" value="" style="endArrow=none;html=1;rounded=0;" edge="1" parent="1" source="5rGbsbJMOas40W4paa9o-46" target="Q4NwFkbrb7sqt-uBTXur-2">
          <mxGeometry width="50" height="50" relative="1" as="geometry">
            <mxPoint x="420" y="110" as="sourcePoint" />
            <mxPoint x="470" y="60" as="targetPoint" />
          </mxGeometry>
        </mxCell>
        <mxCell id="5rGbsbJMOas40W4paa9o-52" value="" style="endArrow=none;html=1;rounded=0;" edge="1" parent="1" source="5rGbsbJMOas40W4paa9o-46" target="5rGbsbJMOas40W4paa9o-3">
          <mxGeometry width="50" height="50" relative="1" as="geometry">
            <mxPoint x="780" y="50" as="sourcePoint" />
            <mxPoint x="830" as="targetPoint" />
          </mxGeometry>
        </mxCell>
        <mxCell id="5rGbsbJMOas40W4paa9o-53" value="Региональные&amp;nbsp;&lt;div&gt;промоакции&lt;/div&gt;" style="edgeLabel;html=1;align=center;verticalAlign=middle;resizable=0;points=[];" vertex="1" connectable="0" parent="5rGbsbJMOas40W4paa9o-52">
          <mxGeometry x="-0.6629" y="-2" relative="1" as="geometry">
            <mxPoint as="offset" />
          </mxGeometry>
        </mxCell>
        <mxCell id="5rGbsbJMOas40W4paa9o-54" value="" style="endArrow=none;html=1;rounded=0;" edge="1" parent="1" source="5rGbsbJMOas40W4paa9o-47" target="uNtTc-Wmph4pzVrM2ROG-4">
          <mxGeometry width="50" height="50" relative="1" as="geometry">
            <mxPoint x="280" y="210" as="sourcePoint" />
            <mxPoint x="330" y="160" as="targetPoint" />
          </mxGeometry>
        </mxCell>
        <mxCell id="5rGbsbJMOas40W4paa9o-55" value="Новости спорта в&amp;nbsp;&lt;div&gt;зависимости от&amp;nbsp;&lt;/div&gt;&lt;div&gt;характериа тренировки&lt;/div&gt;" style="edgeLabel;html=1;align=center;verticalAlign=middle;resizable=0;points=[];" vertex="1" connectable="0" parent="5rGbsbJMOas40W4paa9o-54">
          <mxGeometry x="-0.2105" y="-2" relative="1" as="geometry">
            <mxPoint x="33" y="-32" as="offset" />
          </mxGeometry>
        </mxCell>
        <mxCell id="5rGbsbJMOas40W4paa9o-56" value="Агрегатор новостей спорта" style="rounded=0;whiteSpace=wrap;html=1;fillColor=#f5f5f5;strokeColor=#666666;gradientColor=#b3b3b3;" vertex="1" parent="1">
          <mxGeometry x="1215" y="270" width="210" height="90" as="geometry" />
        </mxCell>
        <mxCell id="5rGbsbJMOas40W4paa9o-57" value="" style="endArrow=none;html=1;rounded=0;" edge="1" parent="1" source="5rGbsbJMOas40W4paa9o-56" target="5rGbsbJMOas40W4paa9o-47">
          <mxGeometry width="50" height="50" relative="1" as="geometry">
            <mxPoint x="630" y="30" as="sourcePoint" />
            <mxPoint x="680" y="-20" as="targetPoint" />
          </mxGeometry>
        </mxCell>
        <mxCell id="5rGbsbJMOas40W4paa9o-58" value="CRM" style="rounded=0;whiteSpace=wrap;html=1;fillColor=#f5f5f5;strokeColor=#666666;gradientColor=#b3b3b3;" vertex="1" parent="1">
          <mxGeometry x="1215" y="-265" width="210" height="90" as="geometry" />
        </mxCell>
        <mxCell id="5rGbsbJMOas40W4paa9o-59" value="" style="endArrow=none;html=1;rounded=0;exitX=1;exitY=0.5;exitDx=0;exitDy=0;" edge="1" parent="1" source="5rGbsbJMOas40W4paa9o-46" target="5rGbsbJMOas40W4paa9o-58">
          <mxGeometry width="50" height="50" relative="1" as="geometry">
            <mxPoint x="690" y="30" as="sourcePoint" />
            <mxPoint x="740" y="-20" as="targetPoint" />
          </mxGeometry>
        </mxCell>
        <mxCell id="5rGbsbJMOas40W4paa9o-67" value="Проектирумая система" style="text;html=1;align=center;verticalAlign=middle;whiteSpace=wrap;rounded=0;" vertex="1" parent="1">
          <mxGeometry x="-40" y="-600" width="180" height="30" as="geometry" />
        </mxCell>
        <mxCell id="5rGbsbJMOas40W4paa9o-68" value="Мобильное приложение" style="text;html=1;align=center;verticalAlign=middle;whiteSpace=wrap;rounded=0;" vertex="1" parent="1">
          <mxGeometry x="-380" y="-310" width="90" height="30" as="geometry" />
        </mxCell>
        <mxCell id="5rGbsbJMOas40W4paa9o-70" value="Существующие системы и приложения" style="text;html=1;align=center;verticalAlign=middle;whiteSpace=wrap;rounded=0;" vertex="1" parent="1">
          <mxGeometry x="1240" y="-480" width="160" height="30" as="geometry" />
        </mxCell>
        <mxCell id="5rGbsbJMOas40W4paa9o-71" value="" style="rounded=0;whiteSpace=wrap;html=1;fillColor=#d5e8d4;strokeColor=#82b366;" vertex="1" parent="1">
          <mxGeometry x="305" y="520" width="120" height="35" as="geometry" />
        </mxCell>
        <mxCell id="5rGbsbJMOas40W4paa9o-72" value="Первый этап" style="text;html=1;align=center;verticalAlign=middle;whiteSpace=wrap;rounded=0;" vertex="1" parent="1">
          <mxGeometry x="460" y="525" width="120" height="30" as="geometry" />
        </mxCell>
        <mxCell id="5rGbsbJMOas40W4paa9o-73" value="" style="rounded=0;whiteSpace=wrap;html=1;fillColor=#dae8fc;strokeColor=#6c8ebf;" vertex="1" parent="1">
          <mxGeometry x="305" y="560" width="120" height="35" as="geometry" />
        </mxCell>
        <mxCell id="5rGbsbJMOas40W4paa9o-74" value="Второй этап" style="text;html=1;align=center;verticalAlign=middle;whiteSpace=wrap;rounded=0;" vertex="1" parent="1">
          <mxGeometry x="460" y="565" width="120" height="30" as="geometry" />
        </mxCell>
        <mxCell id="5rGbsbJMOas40W4paa9o-75" value="" style="rounded=0;whiteSpace=wrap;html=1;fillColor=#fff2cc;strokeColor=#d6b656;" vertex="1" parent="1">
          <mxGeometry x="305" y="600" width="120" height="35" as="geometry" />
        </mxCell>
        <mxCell id="5rGbsbJMOas40W4paa9o-76" value="Третий этап" style="text;html=1;align=center;verticalAlign=middle;whiteSpace=wrap;rounded=0;" vertex="1" parent="1">
          <mxGeometry x="460" y="605" width="120" height="30" as="geometry" />
        </mxCell>
        <mxCell id="5rGbsbJMOas40W4paa9o-77" value="Рекомендации товаров" style="rounded=0;whiteSpace=wrap;html=1;fillColor=#d5e8d4;strokeColor=#82b366;" vertex="1" parent="1">
          <mxGeometry x="502.5" y="50" width="215" height="60" as="geometry" />
        </mxCell>
        <mxCell id="5rGbsbJMOas40W4paa9o-78" value="" style="endArrow=none;html=1;rounded=0;" edge="1" parent="1" source="Q4NwFkbrb7sqt-uBTXur-2" target="5rGbsbJMOas40W4paa9o-77">
          <mxGeometry width="50" height="50" relative="1" as="geometry">
            <mxPoint x="510" y="-110" as="sourcePoint" />
            <mxPoint x="560" y="-160" as="targetPoint" />
          </mxGeometry>
        </mxCell>
        <mxCell id="5rGbsbJMOas40W4paa9o-79" value="Рекомендации в группу по общим местам тренировки" style="rounded=0;whiteSpace=wrap;html=1;fillColor=#fff2cc;strokeColor=#d6b656;" vertex="1" parent="1">
          <mxGeometry x="750" y="-570" width="170" height="60" as="geometry" />
        </mxCell>
        <mxCell id="5rGbsbJMOas40W4paa9o-80" value="" style="endArrow=none;html=1;rounded=0;" edge="1" parent="1" source="5rGbsbJMOas40W4paa9o-79" target="5rGbsbJMOas40W4paa9o-3">
          <mxGeometry width="50" height="50" relative="1" as="geometry">
            <mxPoint x="510" y="-110" as="sourcePoint" />
            <mxPoint x="560" y="-160" as="targetPoint" />
          </mxGeometry>
        </mxCell>
        <mxCell id="5rGbsbJMOas40W4paa9o-81" value="" style="endArrow=none;html=1;rounded=0;" edge="1" parent="1" source="uNtTc-Wmph4pzVrM2ROG-3" target="5rGbsbJMOas40W4paa9o-79">
          <mxGeometry width="50" height="50" relative="1" as="geometry">
            <mxPoint x="510" y="-110" as="sourcePoint" />
            <mxPoint x="560" y="-160" as="targetPoint" />
          </mxGeometry>
        </mxCell>
        <mxCell id="5rGbsbJMOas40W4paa9o-82" value="&lt;div&gt;По локации пользователь может&amp;nbsp;&lt;/div&gt;&lt;div&gt;приглашать д&lt;span style=&quot;background-color: light-dark(#ffffff, var(--ge-dark-color, #121212)); color: light-dark(rgb(0, 0, 0), rgb(255, 255, 255));&quot;&gt;ругих пользователей&amp;nbsp;&lt;/span&gt;&lt;/div&gt;&lt;div&gt;для совместной тренировки по&amp;nbsp;&lt;/div&gt;&lt;div&gt;месту нахождения или маршруту&lt;/div&gt;" style="edgeLabel;html=1;align=center;verticalAlign=middle;resizable=0;points=[];" vertex="1" connectable="0" parent="5rGbsbJMOas40W4paa9o-81">
          <mxGeometry x="0.5099" y="-3" relative="1" as="geometry">
            <mxPoint as="offset" />
          </mxGeometry>
        </mxCell>
        <mxCell id="5rGbsbJMOas40W4paa9o-83" value="Сервис информации по характеристикам спортсменов" style="rounded=0;whiteSpace=wrap;html=1;fillColor=#f5f5f5;strokeColor=#666666;gradientColor=#b3b3b3;" vertex="1" parent="1">
          <mxGeometry x="1215" y="380" width="210" height="90" as="geometry" />
        </mxCell>
        <mxCell id="5rGbsbJMOas40W4paa9o-84" value="Сравнение с характеристиками спортсменов" style="rounded=0;whiteSpace=wrap;html=1;fillColor=#ffe6cc;strokeColor=#d79b00;" vertex="1" parent="1">
          <mxGeometry x="840" y="370" width="200" height="70" as="geometry" />
        </mxCell>
        <mxCell id="5rGbsbJMOas40W4paa9o-85" value="" style="rounded=0;whiteSpace=wrap;html=1;fillColor=#ffe6cc;strokeColor=#d79b00;" vertex="1" parent="1">
          <mxGeometry x="305" y="640" width="120" height="35" as="geometry" />
        </mxCell>
        <mxCell id="5rGbsbJMOas40W4paa9o-86" value="Четвертый этап" style="text;html=1;align=center;verticalAlign=middle;whiteSpace=wrap;rounded=0;" vertex="1" parent="1">
          <mxGeometry x="460" y="645" width="120" height="30" as="geometry" />
        </mxCell>
        <mxCell id="5rGbsbJMOas40W4paa9o-87" value="Рекомендации в группу доступных в текущий момент&amp;nbsp;" style="rounded=0;whiteSpace=wrap;html=1;fillColor=#ffe6cc;strokeColor=#d79b00;" vertex="1" parent="1">
          <mxGeometry x="890" y="-430" width="150" height="70" as="geometry" />
        </mxCell>
        <mxCell id="5rGbsbJMOas40W4paa9o-88" value="" style="endArrow=none;html=1;rounded=0;" edge="1" parent="1" source="uNtTc-Wmph4pzVrM2ROG-3" target="5rGbsbJMOas40W4paa9o-87">
          <mxGeometry width="50" height="50" relative="1" as="geometry">
            <mxPoint x="640" y="-220" as="sourcePoint" />
            <mxPoint x="690" y="-270" as="targetPoint" />
          </mxGeometry>
        </mxCell>
        <mxCell id="5rGbsbJMOas40W4paa9o-90" value="&lt;div&gt;Пользователь может&amp;nbsp;&lt;/div&gt;&lt;div&gt;приглашать д&lt;span style=&quot;color: light-dark(rgb(0, 0, 0), rgb(255, 255, 255));&quot;&gt;ругих пользователей&amp;nbsp;&lt;/span&gt;&lt;/div&gt;&lt;div&gt;которые занимаются прямо сейчас&lt;/div&gt;" style="edgeLabel;html=1;align=center;verticalAlign=middle;resizable=0;points=[];" vertex="1" connectable="0" parent="5rGbsbJMOas40W4paa9o-88">
          <mxGeometry x="0.4256" y="1" relative="1" as="geometry">
            <mxPoint as="offset" />
          </mxGeometry>
        </mxCell>
        <mxCell id="5rGbsbJMOas40W4paa9o-89" value="" style="endArrow=none;html=1;rounded=0;" edge="1" parent="1" source="5rGbsbJMOas40W4paa9o-87" target="5rGbsbJMOas40W4paa9o-3">
          <mxGeometry width="50" height="50" relative="1" as="geometry">
            <mxPoint x="640" y="-220" as="sourcePoint" />
            <mxPoint x="690" y="-270" as="targetPoint" />
          </mxGeometry>
        </mxCell>
        <mxCell id="5rGbsbJMOas40W4paa9o-91" value="" style="endArrow=none;html=1;rounded=0;" edge="1" parent="1" source="5rGbsbJMOas40W4paa9o-84" target="uNtTc-Wmph4pzVrM2ROG-3">
          <mxGeometry width="50" height="50" relative="1" as="geometry">
            <mxPoint x="640" y="10" as="sourcePoint" />
            <mxPoint x="690" y="-40" as="targetPoint" />
          </mxGeometry>
        </mxCell>
        <mxCell id="5rGbsbJMOas40W4paa9o-93" value="&lt;p style=&quot;margin: 0cm; font-size: 12pt; font-family: &amp;quot;Times New Roman&amp;quot;, serif; text-align: start; text-wrap-mode: wrap;&quot; class=&quot;MsoNormal&quot;&gt;сравнение&amp;nbsp;&lt;span style=&quot;font-size: 12pt; background-color: light-dark(#ffffff, var(--ge-dark-color, #121212)); color: light-dark(rgb(0, 0, 0), rgb(255, 255, 255));&quot;&gt;с&lt;/span&gt;&lt;/p&gt;&lt;p style=&quot;margin: 0cm; font-size: 12pt; font-family: &amp;quot;Times New Roman&amp;quot;, serif; text-align: start; text-wrap-mode: wrap;&quot; class=&quot;MsoNormal&quot;&gt;&lt;span style=&quot;font-size: 12pt; background-color: light-dark(#ffffff, var(--ge-dark-color, #121212)); color: light-dark(rgb(0, 0, 0), rgb(255, 255, 255));&quot;&gt;профессиональными&amp;nbsp;&lt;/span&gt;&lt;/p&gt;&lt;p style=&quot;margin: 0cm; font-size: 12pt; font-family: &amp;quot;Times New Roman&amp;quot;, serif; text-align: start; text-wrap-mode: wrap;&quot; class=&quot;MsoNormal&quot;&gt;спортсменами&lt;/p&gt;" style="edgeLabel;html=1;align=center;verticalAlign=middle;resizable=0;points=[];" vertex="1" connectable="0" parent="5rGbsbJMOas40W4paa9o-91">
          <mxGeometry x="0.0787" y="2" relative="1" as="geometry">
            <mxPoint x="57" y="-49" as="offset" />
          </mxGeometry>
        </mxCell>
        <mxCell id="5rGbsbJMOas40W4paa9o-92" value="" style="endArrow=none;html=1;rounded=0;" edge="1" parent="1" source="5rGbsbJMOas40W4paa9o-83" target="5rGbsbJMOas40W4paa9o-84">
          <mxGeometry width="50" height="50" relative="1" as="geometry">
            <mxPoint x="640" y="70" as="sourcePoint" />
            <mxPoint x="690" y="20" as="targetPoint" />
          </mxGeometry>
        </mxCell>
        <mxCell id="5rGbsbJMOas40W4paa9o-94" value="Отслеживание характеристик с внешних устройств" style="rounded=0;whiteSpace=wrap;html=1;fillColor=#ffe6cc;strokeColor=#d79b00;" vertex="1" parent="1">
          <mxGeometry x="490" y="-570" width="230" height="60" as="geometry" />
        </mxCell>
        <mxCell id="5rGbsbJMOas40W4paa9o-95" value="" style="endArrow=none;html=1;rounded=0;" edge="1" parent="1" source="uNtTc-Wmph4pzVrM2ROG-3" target="5rGbsbJMOas40W4paa9o-94">
          <mxGeometry width="50" height="50" relative="1" as="geometry">
            <mxPoint x="640" y="-410" as="sourcePoint" />
            <mxPoint x="690" y="-460" as="targetPoint" />
          </mxGeometry>
        </mxCell>
        <mxCell id="5rGbsbJMOas40W4paa9o-97" value="Подключение сторонних устройств" style="rounded=0;whiteSpace=wrap;html=1;fillColor=#ffe6cc;strokeColor=#d79b00;" vertex="1" parent="1">
          <mxGeometry x="-10" y="-550" width="180" height="60" as="geometry" />
        </mxCell>
        <mxCell id="5rGbsbJMOas40W4paa9o-98" value="" style="endArrow=none;html=1;rounded=0;" edge="1" parent="1" source="5rGbsbJMOas40W4paa9o-15" target="5rGbsbJMOas40W4paa9o-97">
          <mxGeometry width="50" height="50" relative="1" as="geometry">
            <mxPoint x="640" y="-320" as="sourcePoint" />
            <mxPoint x="690" y="-370" as="targetPoint" />
          </mxGeometry>
        </mxCell>
        <mxCell id="5rGbsbJMOas40W4paa9o-99" value="Рекомендации по замене старого инвентаря" style="rounded=0;whiteSpace=wrap;html=1;fillColor=#fff2cc;strokeColor=#d6b656;" vertex="1" parent="1">
          <mxGeometry x="290" y="-570" width="170" height="60" as="geometry" />
        </mxCell>
        <mxCell id="5rGbsbJMOas40W4paa9o-101" value="" style="endArrow=none;html=1;rounded=0;" edge="1" parent="1" source="5rGbsbJMOas40W4paa9o-99" target="5rGbsbJMOas40W4paa9o-21">
          <mxGeometry width="50" height="50" relative="1" as="geometry">
            <mxPoint x="290" y="-180" as="sourcePoint" />
            <mxPoint x="340" y="-230" as="targetPoint" />
          </mxGeometry>
        </mxCell>
      </root>
    </mxGraphModel>
  </diagram>
</mxfile>
